#!OML:ASF H:\LiuWeirdWalks\Patient Classification 1\Patient 1\Session 1\male.ASF
:FULLY-SPECIFIED
:DEGREES
427
root 1.63958 17.636 3.85676 5.82927 7.40627 5.78354
lowerback 5.86815 -2.12056 -9.44687
upperback -2.06269 -3.50103 1.84466
thorax -4.80114 -1.41075 7.60195
lowerneck -24.4981 2.91175 8.18844
upperneck 15.5983 2.47209 -6.22745
head 9.08069 0.948274 -3.13075
rclavicle -9.49197e-015 1.19271e-014
rhumerus -33.0003 -7.51354 -78.2006
rradius 27.8845
rwrist -6.86466
rhand -16.1389 -0.604608
rfingers 7.12502
rthumb 10.0662 -30.3439
lclavicle -9.49197e-015 1.19271e-014
lhumerus -21.2541 -6.49062 87.8018
lradius 39.2172
lwrist 11.4805
lhand -18.0452 -4.24081
lfingers 7.12502
lthumb 8.22673 25.579
rfemur -40.6268 -5.07163 11.1382
rtibia 30.8799
rfoot -9.00982 -20.891
rtoes -10.9365
lfemur 7.62433 3.70642 -27.3787
ltibia 11.5804
lfoot -14.6407 15.2026
ltoes -13.2074
428
root 1.6298 17.5892 4.01771 5.92981 7.61881 5.98875
lowerback 5.93018 -2.16027 -9.5513
upperback -2.00895 -3.5663 1.84636
thorax -4.76081 -1.44427 7.66979
lowerneck -24.6228 2.95699 8.22145
upperneck 15.3648 2.52077 -6.30815
head 9.02594 0.960172 -3.15419
rclavicle 5.36719e-015 -1.59028e-014
rhumerus -32.928 -7.35075 -78.2532
rradius 28.0675
rwrist -7.05047
rhand -16.1608 -0.564412
rfingers 7.12502
rthumb 10.045 -30.3047
lclavicle 5.36719e-015 -1.59028e-014
lhumerus -21.3333 -6.72237 87.9788
lradius 39.6353
lwrist 11.6542
lhand -18.0964 -4.28926
lfingers 7.12502
lthumb 8.17728 25.5325
rfemur -41.1664 -5.17091 10.9466
rtibia 31.9249
rfoot -8.41775 -20.4926
rtoes -10.8237
lfemur 8.32906 3.51939 -27.4576
ltibia 11.2121
lfoot -14.825 15.3826
ltoes -13.5486
429
root 1.61874 17.5395 4.18193 6.00987 7.83553 6.18805
lowerback 5.9947 -2.20305 -9.66181
upperback -1.95825 -3.63621 1.8572
thorax -4.72304 -1.4796 7.75156
lowerneck -24.681 3.00945 8.28135
upperneck 15.0559 2.58035 -6.4263
head 8.93588 0.975096 -3.19239
rclavicle 6.10269e-014 3.97569e-015
rhumerus -32.8747 -7.16936 -78.2981
rradius 28.2607
rwrist -7.22899
rhand -16.1711 -0.506554
rfingers 7.12502
rthumb 10.0351 -30.2473
lclavicle 6.10269e-014 3.97569e-015
lhumerus -21.4821 -6.95469 88.1743
lradius 40.0495
lwrist 11.7963
lhand -18.1629 -4.41413
lfingers 7.12502
lthumb 8.11309 25.4101
rfemur -41.6847 -5.25241 10.763
rtibia 33.1569
rfoot -7.85274 -20.1013
rtoes -10.7711
lfemur 9.03233 3.2851 -27.5344
ltibia 10.9188
lfoot -15.0223 15.6262
ltoes -13.9007
430
root 1.60648 17.487 4.34918 6.07635 8.0598 6.37482
lowerback 6.06228 -2.25199 -9.77083
upperback -1.90818 -3.71418 1.87878
thorax -4.68509 -1.51891 7.84487
lowerneck -24.7235 3.06163 8.34178
upperneck 14.7565 2.64203 -6.55221
head 8.84714 0.990612 -3.2332
rclavicle -5.29264e-014 -1.35174e-014
rhumerus -32.8067 -6.96547 -78.3445
rradius 28.4418
rwrist -7.40374
rhand -16.1809 -0.45468
rfingers 7.12502
rthumb 10.0256 -30.1959
lclavicle -5.29264e-014 -1.35174e-014
lhumerus -21.6788 -7.19323 88.3806
lradius 40.4486
lwrist 11.9293
lhand -18.2212 -4.55562
lfingers 7.12502
lthumb 8.05689 25.2708
rfemur -42.1843 -5.32889 10.6006
rtibia 34.5501
rfoot -7.32414 -19.7179
rtoes -10.7508
lfemur 9.72544 3.00997 -27.5995
ltibia 10.6998
lfoot -15.2372 15.9147
ltoes -14.2464
431
root 1.59309 17.4322 4.52055 6.12552 8.2819 6.53691
lowerback 6.11121 -2.30443 -9.86109
upperback -1.85024 -3.79281 1.90631
thorax -4.62823 -1.56062 7.9324
lowerneck -24.7346 3.12179 8.42714
upperneck 14.4189 2.70994 -6.695
head 8.74157 1.00904 -3.28248
rclavicle -1.61513e-014 -7.15625e-015
rhumerus -32.7368 -6.73294 -78.4097
rradius 28.6354
rwrist -7.58428
rhand -16.2307 -0.419424
rfingers 7.12502
rthumb 9.97759 -30.1629
lclavicle -1.61513e-014 -7.15625e-015
lhumerus -21.9278 -7.44791 88.5898
lradius 40.8555
lwrist 12.0596
lhand -18.279 -4.68334
lfingers 7.12502
lthumb 8.0011 25.1452
rfemur -42.6581 -5.38976 10.4751
rtibia 36.0837
rfoot -6.81614 -19.3557
rtoes -10.768
lfemur 10.4277 2.7093 -27.6378
ltibia 10.529
lfoot -15.4598 16.2348
ltoes -14.6094
432
root 1.57842 17.3756 4.69576 6.16475 8.49847 6.67562
lowerback 6.14246 -2.361 -9.94463
upperback -1.79245 -3.87399 1.94692
thorax -4.56004 -1.60446 8.02916
lowerneck -24.775 3.18613 8.51328
upperneck 14.1209 2.7823 -6.84132
head 8.65543 1.02913 -3.33307
rclavicle -7.92654e-014 7.95139e-016
rhumerus -32.6648 -6.46869 -78.4807
rradius 28.8174
rwrist -7.71772
rhand -16.3089 -0.35002
rfingers 7.12502
rthumb 9.90216 -30.0971
lclavicle -7.92654e-014 7.95139e-016
lhumerus -22.2333 -7.72219 88.8103
lradius 41.2512
lwrist 12.2152
lhand -18.3366 -4.78948
lfingers 7.12502
lthumb 7.94545 25.0412
rfemur -43.1148 -5.44305 10.3911
rtibia 37.7373
rfoot -6.32397 -19.0317
rtoes -10.7168
lfemur 11.1427 2.38843 -27.6504
ltibia 10.3797
lfoot -15.6702 16.5726
ltoes -15.0119
433
root 1.5632 17.3179 4.87537 6.18796 8.70565 6.79828
lowerback 6.17672 -2.41625 -10.0121
upperback -1.74958 -3.95297 1.9917
thorax -4.51022 -1.64602 8.12194
lowerneck -24.8131 3.25246 8.59657
upperneck 13.8761 2.85804 -6.97769
head 8.58764 1.05223 -3.37995
rclavicle 3.27995e-015 -1.98785e-014
rhumerus -32.6144 -6.20033 -78.5457
rradius 28.9879
rwrist -7.81029
rhand -16.3918 -0.282724
rfingers 7.12502
rthumb 9.82214 -30.0336
lclavicle 3.27995e-015 -1.98785e-014
lhumerus -22.6162 -8.02951 89.0438
lradius 41.6244
lwrist 12.3733
lhand -18.3703 -4.86234
lfingers 7.12502
lthumb 7.91292 24.9696
rfemur -43.5455 -5.50359 10.342
rtibia 39.497
rfoot -5.84868 -18.7435
rtoes -10.4935
lfemur 11.9032 2.06185 -27.6441
ltibia 10.2104
lfoot -15.8597 16.9029
ltoes -15.4657
434
root 1.54715 17.2598 5.05926 6.20253 8.8966 6.89786
lowerback 6.2033 -2.47205 -10.0654
upperback -1.72065 -4.031 2.04512
thorax -4.471 -1.68628 8.21589
lowerneck -24.8655 3.30964 8.6594
upperneck 13.6861 2.92425 -7.0908
head 8.53975 1.07241 -3.41754
rclavicle -7.7526e-015 -2.06736e-014
rhumerus -32.5795 -5.90878 -78.6104
rradius 29.1536
rwrist -7.89199
rhand -16.466 -0.217999
rfingers 7.12502
rthumb 9.75055 -29.9723
lclavicle -7.7526e-015 -2.06736e-014
lhumerus -23.0614 -8.3382 89.288
lradius 41.962
lwrist 12.5166
lhand -18.3792 -4.92507
lfingers 7.12502
lthumb 7.90433 24.9072
rfemur -43.9666 -5.5679 10.3392
rtibia 41.346
rfoot -5.44707 -18.4639
rtoes -9.99193
lfemur 12.7126 1.75735 -27.6044
ltibia 9.99051
lfoot -15.9973 17.1961
ltoes -16.0298
435
root 1.53031 17.2018 5.24753 6.21357 9.05655 6.99985
lowerback 6.22001 -2.51998 -10.1276
upperback -1.70363 -4.09884 2.0975
thorax -4.44031 -1.72027 8.31299
lowerneck -24.9713 3.35449 8.67964
upperneck 13.5911 2.97692 -7.15129
head 8.53049 1.08925 -3.43317
rclavicle 6.29153e-014 -4.77083e-015
rhumerus -32.5435 -5.64607 -78.6559
rradius 29.2745
rwrist -7.91963
rhand -16.4971 -0.0926936
rfingers 7.12502
rthumb 9.72058 -29.8484
lclavicle 6.29153e-014 -4.77083e-015
lhumerus -23.5454 -8.65092 89.5466
lradius 42.2336
lwrist 12.6476
lhand -18.3671 -4.99124
lfingers 7.12502
lthumb 7.91602 24.8405
rfemur -44.3895 -5.62928 10.3522
rtibia 43.2662
rfoot -5.15941 -18.1918
rtoes -9.24132
lfemur 13.572 1.48152 -27.5604
ltibia 9.70766
lfoot -16.0705 17.4409
ltoes -16.6306
436
root 1.51293 17.1447 5.44001 6.21561 9.1888 7.08628
lowerback 6.24175 -2.55955 -10.1745
upperback -1.70745 -4.1557 2.1521
thorax -4.4376 -1.7466 8.4044
lowerneck -25.0731 3.39294 8.6827
upperneck 13.5504 3.0249 -7.18903
head 8.53807 1.10577 -3.43946
rclavicle -2.78299e-014 5.56597e-015
rhumerus -32.5133 -5.41655 -78.6784
rradius 29.343
rwrist -7.8963
rhand -16.5115 0.0704734
rfingers 7.12502
rthumb 9.70672 -29.6859
lclavicle -2.78299e-014 5.56597e-015
lhumerus -24.0924 -8.94639 89.8187
lradius 42.4485
lwrist 12.6716
lhand -18.3176 -5.06691
lfingers 7.12502
lthumb 7.96379 24.7631
rfemur -44.8113 -5.69242 10.4017
rtibia 45.2312
rfoot -5.01722 -17.9393
rtoes -8.21653
lfemur 14.479 1.22312 -27.4927
ltibia 9.37541
lfoot -16.0784 17.6299
ltoes -17.2678
